<svg xmlns="http://www.w3.org/2000/svg" viewBox="0 0 101.8 35" width="101.8" height="35" role="img" aria-label="React 19"><title>React 19</title><rect x="4.5" y="4.5" width="94.8" height="28" rx="14.0" fill="#18181b"/><rect x="1.5" y="1.5" width="94.8" height="28" rx="14.0" fill="#dbeafe" stroke="#18181b" stroke-width="2.5"/><path d="M0.9 0V-10.4H3.8Q4.9 -10.4 5.7 -10Q6.4 -9.6 6.9 -8.9Q7.3 -8.2 7.3 -7.2Q7.3 -6.3 6.9 -5.7Q6.4 -5 5.7 -4.6Q4.9 -4.3 3.8 -4.3H2.9V0ZM5.4 0 3.3 -4.6H5.3L7.5 0ZM2.9 -5.8H3.9Q4.6 -5.8 4.9 -6.2Q5.3 -6.6 5.3 -7.2Q5.3 -7.9 4.9 -8.2Q4.6 -8.6 3.9 -8.6H2.9ZM10 0V-10.4H15.7V-8.7H11.9V-6H15V-4.4H11.9V-1.7H15.5V0ZM17.8 0 19.7 -10.4H22.9L24.8 0H22.8L21.4 -8.8H21.2L19.7 0ZM19.2 -3.2V-5H23.4V-3.2ZM30.2 0.2Q28.5 0.2 27.7 -1.1Q26.9 -2.4 26.9 -5.2Q26.9 -8 27.7 -9.3Q28.5 -10.6 30.3 -10.6Q31.2 -10.6 31.9 -10.2Q32.6 -9.8 33 -8.9Q33.4 -8.1 33.4 -6.8H31.7Q31.5 -7.9 31.2 -8.4Q30.8 -8.9 30.3 -8.9Q29.5 -8.9 29.2 -8Q28.8 -7.1 28.8 -5.2Q28.8 -3.3 29.1 -2.4Q29.5 -1.5 30.2 -1.5Q30.7 -1.5 31 -2Q31.4 -2.4 31.5 -3.5H33.3Q33.2 -2.2 32.8 -1.4Q32.4 -0.6 31.8 -0.2Q31.1 0.2 30.2 0.2ZM37.8 0V-8.6H35.3V-10.4H42.2V-8.6H39.7V0ZM57.5 -10.4V-1.8H59.5V0H53.4V-1.8H55.5V-9.1L56 -8.9L53.4 -7.1V-9.2L55.1 -10.4ZM64.9 -10.6Q65.8 -10.6 66.5 -10.2Q67.3 -9.7 67.6 -8.9Q68 -8.1 68 -6.9Q68 -6.1 67.8 -5.3Q67.6 -4.5 67.1 -3.6L65.1 0H63L65 -3.4L64.7 -3.6Q64.6 -3.6 64.5 -3.6Q64.4 -3.5 64.3 -3.5Q63.5 -3.5 63 -4Q62.4 -4.4 62 -5.2Q61.7 -6 61.7 -6.9Q61.7 -8.1 62.1 -8.9Q62.5 -9.7 63.2 -10.2Q63.9 -10.6 64.9 -10.6ZM66.1 -6.9Q66.1 -7.5 65.9 -8Q65.8 -8.4 65.5 -8.6Q65.3 -8.9 64.9 -8.9Q64.5 -8.9 64.2 -8.6Q63.9 -8.4 63.8 -8Q63.6 -7.5 63.6 -6.9Q63.6 -6.4 63.8 -5.9Q63.9 -5.5 64.2 -5.3Q64.5 -5.1 64.9 -5.1Q65.3 -5.1 65.5 -5.3Q65.8 -5.5 65.9 -5.9Q66.1 -6.4 66.1 -6.9Z" fill="#18181b" transform="translate(14.5 20.2)"/></svg>
